<?xml version="1.0" encoding="utf-8"?>
<!-- Generator: Adobe Illustrator 25.0.1, SVG Export Plug-In . SVG Version: 6.00 Build 0)  -->
<svg version="1.1" id="katman_1" xmlns="http://www.w3.org/2000/svg" xmlns:xlink="http://www.w3.org/1999/xlink" x="0px" y="0px"
	 viewBox="0 0 604.72 406.11" style="enable-background:new 0 0 604.72 406.11;" xml:space="preserve">
<style type="text/css">
	.st0{fill:#2C2E36;}
	.st1{fill:#FFFFFF;}
	.st2{fill:#010202;}
	.st3{fill-rule:evenodd;clip-rule:evenodd;fill:#FFFFFF;}
</style>
<path id="Path_1" class="st0" d="M468.43,144.56H136.05c-1.06,0-2.1,0-3.13,0c-0.89,0-1.77,0.03-2.66,0.03
	c-1.89,0.06-3.81,0.18-5.73,0.53c-1.92,0.32-3.69,0.89-5.44,1.77c-1.71,0.89-3.28,2.04-4.64,3.4c-1.39,1.36-2.51,2.92-3.4,4.64
	c-0.89,1.74-1.45,3.55-1.77,5.47c-0.35,1.89-0.47,3.81-0.53,5.73c0,0.86-0.03,1.74-0.03,2.63v3.13v61.45v3.13
	c0,0.89,0.03,1.77,0.03,2.66c0.06,1.92,0.18,3.84,0.53,5.73c0.32,1.92,0.89,3.72,1.77,5.47c0.89,1.68,2.01,3.28,3.4,4.61
	c1.36,1.36,2.92,2.51,4.64,3.37c1.74,0.92,3.52,1.48,5.44,1.83c1.92,0.32,3.84,0.44,5.73,0.5c0.89,0,1.77,0.03,2.66,0.03
	c1.03,0,2.07,0,3.13,0h332.38c1.03,0,2.07,0,3.1,0c0.86,0,1.77-0.03,2.63-0.03c1.92-0.06,3.84-0.18,5.73-0.5
	c1.92-0.35,3.72-0.92,5.47-1.83c1.71-0.86,3.28-2.01,4.64-3.37c1.36-1.33,2.51-2.92,3.4-4.61c0.89-1.74,1.45-3.55,1.77-5.47
	c0.35-1.89,0.47-3.81,0.53-5.73c0-0.89,0-1.77,0-2.66c0.03-1.03,0.03-2.07,0.03-3.13v-61.45c0-1.06,0-2.1-0.03-3.13
	c0-0.89,0-1.77,0-2.63c-0.06-1.92-0.18-3.84-0.53-5.73c-0.32-1.92-0.89-3.72-1.77-5.47c-0.89-1.71-2.04-3.28-3.4-4.64
	c-1.36-1.36-2.92-2.51-4.64-3.4c-1.74-0.89-3.55-1.45-5.47-1.77c-1.89-0.35-3.81-0.47-5.73-0.53c-0.86,0-1.77-0.03-2.63-0.03
	C470.5,144.56,469.46,144.56,468.43,144.56z"/>
<path id="Path_2" class="st1" d="M132.92,258.15c-0.89,0-1.71,0-2.6-0.03c-1.6-0.03-3.49-0.12-5.35-0.47
	c-1.74-0.3-3.31-0.83-4.76-1.57c-1.48-0.74-2.84-1.74-3.99-2.9c-1.18-1.18-2.16-2.51-2.92-4.02c-0.74-1.45-1.24-2.98-1.57-4.76
	c-0.35-1.92-0.44-3.87-0.47-5.35c-0.03-0.62-0.03-2.63-0.03-2.63v-67.68c0,0,0.03-1.98,0.03-2.57c0.03-1.51,0.12-3.46,0.47-5.35
	c0.32-1.77,0.83-3.31,1.57-4.79c0.77-1.48,1.74-2.84,2.9-3.99c1.18-1.18,2.54-2.19,4.02-2.92c1.48-0.77,3.04-1.27,4.76-1.57
	c1.92-0.35,3.87-0.44,5.38-0.47l2.57-0.03H471.5l2.63,0.03c1.48,0.03,3.43,0.12,5.32,0.47c1.74,0.3,3.31,0.8,4.79,1.57
	c1.48,0.74,2.84,1.74,3.99,2.92c1.18,1.15,2.16,2.51,2.95,4.02c0.74,1.45,1.24,3.01,1.51,4.73c0.35,1.8,0.44,3.66,0.5,5.41
	c0.03,0.8,0.03,1.68,0.03,2.54c0,1.06,0,2.1,0,3.13v61.45c0,1.03,0,2.07,0,3.1c0,0.92,0,1.77-0.03,2.66
	c-0.06,1.68-0.15,3.55-0.47,5.29c-0.3,1.77-0.8,3.31-1.57,4.79c-0.77,1.51-1.74,2.84-2.9,3.99c-1.18,1.18-2.54,2.16-4.02,2.92
	c-1.48,0.77-3.01,1.24-4.79,1.57c-1.83,0.35-3.72,0.44-5.35,0.47c-0.83,0.03-1.71,0.03-2.57,0.03h-3.1H132.92z"/>
<path id="AppGallery" class="st2" d="M240.54,218.21l-6.44-17.4l-6.41,17.4H240.54z M218.09,231.12l13.35-34.98h5.35l13.35,34.98
	h-4.93l-3.19-8.98h-15.75l-3.19,8.98H218.09z M259.21,227.19v13.91h-4.31v-36.22h4.31v3.96c0.91-1.56,2.05-2.71,3.43-3.46
	c1.4-0.77,3.05-1.15,4.96-1.15c3.19,0,5.78,1.27,7.77,3.81c2.01,2.52,3.01,5.85,3.01,9.99c0,4.12-1,7.44-3.01,9.99
	c-1.99,2.52-4.58,3.78-7.77,3.78c-1.91,0-3.56-0.37-4.96-1.12C261.26,229.91,260.12,228.74,259.21,227.19z M273.89,218.03
	c0-3.17-0.66-5.66-1.98-7.47c-1.28-1.81-3.06-2.72-5.35-2.72c-2.28,0-4.09,0.91-5.41,2.72c-1.3,1.81-1.95,4.3-1.95,7.47
	s0.65,5.66,1.95,7.47c1.32,1.79,3.12,2.69,5.41,2.69c2.28,0,4.07-0.9,5.35-2.69C273.23,223.69,273.89,221.2,273.89,218.03z
	 M289.7,227.19v13.91h-4.34v-36.22h4.34v3.96c0.91-1.56,2.04-2.71,3.4-3.46c1.4-0.77,3.06-1.15,4.99-1.15
	c3.17,0,5.75,1.27,7.74,3.81c2.01,2.52,3.01,5.85,3.01,9.99c0,4.12-1,7.44-3.01,9.99c-1.99,2.52-4.57,3.78-7.74,3.78
	c-1.93,0-3.59-0.37-4.99-1.12C291.74,229.91,290.6,228.74,289.7,227.19z M304.35,218.03c0-3.17-0.66-5.66-1.98-7.47
	c-1.28-1.81-3.06-2.72-5.35-2.72c-2.28,0-4.09,0.91-5.41,2.72c-1.28,1.81-1.92,4.3-1.92,7.47s0.64,5.66,1.92,7.47
	c1.32,1.79,3.12,2.69,5.41,2.69c2.28,0,4.07-0.9,5.35-2.69C303.69,223.69,304.35,221.2,304.35,218.03z M339.86,226.13v-9.39h-7.71
	v-3.9h12.41v15.04c-1.83,1.3-3.85,2.28-6.06,2.95c-2.19,0.65-4.53,0.97-7.03,0.97c-5.48,0-9.76-1.6-12.85-4.79
	c-3.07-3.19-4.61-7.64-4.61-13.35c0-5.71,1.54-10.16,4.61-13.35c3.09-3.21,7.38-4.82,12.85-4.82c2.28,0,4.44,0.29,6.47,0.86
	c2.07,0.55,3.97,1.38,5.7,2.48v5.05c-1.75-1.5-3.61-2.62-5.58-3.37c-1.97-0.75-4.04-1.12-6.2-1.12c-4.27,0-7.49,1.19-9.66,3.57
	c-2.13,2.4-3.19,5.97-3.19,10.69s1.06,8.28,3.19,10.66c2.17,2.38,5.39,3.57,9.66,3.57c1.67,0,3.17-0.14,4.49-0.41
	C337.65,227.19,338.82,226.74,339.86,226.13z M369.08,217.91h-4.28c-3.49,0-5.9,0.4-7.24,1.21c-1.34,0.79-2.01,2.15-2.01,4.08
	c0,1.54,0.5,2.76,1.51,3.66c1,0.89,2.37,1.33,4.11,1.33c2.4,0,4.32-0.85,5.76-2.54c1.44-1.69,2.16-3.95,2.16-6.77V217.91z
	 M373.39,216.14v14.98h-4.31v-3.99c-0.98,1.6-2.21,2.78-3.66,3.55c-1.48,0.75-3.28,1.12-5.41,1.12c-2.68,0-4.82-0.75-6.41-2.25
	c-1.58-1.52-2.36-3.55-2.36-6.09c0-2.93,0.98-5.16,2.95-6.68c1.99-1.5,4.94-2.25,8.86-2.25h6.03v-0.41c0-1.99-0.65-3.53-1.95-4.61
	c-1.3-1.08-3.13-1.62-5.49-1.62c-1.5,0-2.95,0.18-4.37,0.53c-1.42,0.35-2.79,0.9-4.11,1.62v-3.99c1.58-0.61,3.11-1.06,4.61-1.36
	c1.48-0.32,2.91-0.47,4.31-0.47c3.8,0,6.64,0.98,8.51,2.95C372.46,209.16,373.39,212.14,373.39,216.14z M382.28,231.12v-36.45h4.31
	v36.45H382.28z M395.61,231.12v-36.45h4.31v36.45H395.61z M431.26,216.91v2.13h-19.82c0.18,2.95,1.06,5.22,2.66,6.79
	c1.61,1.54,3.85,2.3,6.71,2.3c1.65,0,3.25-0.2,4.79-0.59c1.58-0.41,3.12-1.02,4.64-1.83v4.08c-1.54,0.65-3.12,1.15-4.76,1.51
	c-1.61,0.33-3.26,0.5-4.93,0.5c-4.18,0-7.49-1.22-9.96-3.66c-2.44-2.42-3.66-5.71-3.66-9.87c0-4.31,1.16-7.72,3.49-10.22
	c2.32-2.54,5.46-3.81,9.39-3.81c3.53,0,6.31,1.14,8.36,3.43C430.23,209.93,431.26,213.01,431.26,216.91z M411.56,215.67h15.39
	c-0.04-2.36-0.71-4.25-2.01-5.67c-1.28-1.4-2.98-2.1-5.11-2.1c-2.4,0-4.33,0.68-5.79,2.04C412.6,211.3,411.78,213.21,411.56,215.67z
	 M453.36,204.47l0.03,4.43c-0.49-0.28-1.02-0.48-1.6-0.62s-1.19-0.21-1.86-0.21c-2.44,0-4.32,0.8-5.64,2.39
	c-1.3,1.58-1.95,3.85-1.95,6.82v13.83h-4.31v-26.23h4.31v4.08c0.91-1.6,2.09-2.78,3.55-3.55c1.46-0.79,3.22-1.18,5.29-1.18
	c0.3,0,0.63,0.03,1,0.09C452.53,204.34,452.93,204.39,453.36,204.47z M480.36,204.88l-11.52,28.66c-1.22,3.13-2.41,5.18-3.57,6.14
	c-1.16,0.95-2.71,1.42-4.64,1.42h-3.46v-3.6h2.54c1.18,0,2.11-0.29,2.78-0.86c0.65-0.55,1.37-1.88,2.16-3.99l0.8-1.95l-10.64-25.82
	h4.58l8.21,20.5l8.18-20.5H480.36z"/>
<path id="EXPLORE_IT_ON" class="st2" d="M217.82,183.85V165.8h11.4v2.04h-8.98v5.35h8.6v2.07h-8.6v6.53h9.22v2.07H217.82z
	 M238.21,174.22l-5.61-8.42h2.63l4.49,6.71l4.49-6.71h2.63l-5.79,8.66l6.17,9.39h-2.63l-5.05-7.68l-5.14,7.68h-2.63L238.21,174.22z
	 M255.93,167.81h-3.07v6.77h3.07c1.14,0,2.03-0.29,2.66-0.86c0.61-0.59,0.92-1.44,0.92-2.54c0-1.06-0.31-1.89-0.92-2.48
	C257.96,168.11,257.07,167.81,255.93,167.81z M250.44,183.85V165.8h5.49c2.03,0,3.56,0.45,4.61,1.36c1.02,0.93,1.54,2.26,1.54,4.02
	c0,1.79-0.51,3.14-1.54,4.05c-1.04,0.91-2.58,1.36-4.61,1.36h-3.07v7.27H250.44z M265.36,183.85V165.8h2.45v15.98h8.8v2.07H265.36z
	 M285.62,167.46c-1.77,0-3.19,0.66-4.25,1.98c-1.02,1.32-1.54,3.12-1.54,5.41c0,2.26,0.51,4.07,1.54,5.41
	c1.06,1.32,2.48,1.98,4.25,1.98s3.17-0.66,4.19-1.98c1.04-1.34,1.57-3.14,1.57-5.41c0-2.28-0.52-4.09-1.57-5.41
	C288.79,168.11,287.39,167.46,285.62,167.46z M285.62,165.48c2.52,0,4.54,0.85,6.06,2.54c1.52,1.69,2.27,3.97,2.27,6.82
	c0,2.86-0.76,5.13-2.27,6.82c-1.52,1.69-3.54,2.54-6.06,2.54c-2.54,0-4.58-0.85-6.12-2.54c-1.52-1.69-2.27-3.97-2.27-6.82
	c0-2.86,0.76-5.13,2.27-6.82C281.04,166.32,283.08,165.48,285.62,165.48z M306.33,175.37c0.53,0.18,1.04,0.56,1.54,1.15
	c0.49,0.57,0.99,1.37,1.51,2.39l2.48,4.93h-2.63l-2.3-4.64c-0.61-1.2-1.19-2-1.74-2.39c-0.57-0.39-1.34-0.59-2.3-0.59h-2.66v7.62
	h-2.45V165.8h5.52c2.07,0,3.61,0.43,4.64,1.3c1,0.85,1.51,2.15,1.51,3.9c0,1.14-0.27,2.09-0.8,2.84
	C308.1,174.58,307.34,175.1,306.33,175.37z M303.29,167.81h-3.07v6.41h3.07c1.18,0,2.07-0.28,2.66-0.83
	c0.61-0.55,0.92-1.35,0.92-2.39c0-1.06-0.31-1.86-0.92-2.39C305.36,168.08,304.47,167.81,303.29,167.81z M314.99,183.85V165.8h11.4
	v2.04h-8.95v5.35h8.6v2.07h-8.6v6.53h9.19v2.07H314.99z M338.5,183.85V165.8h2.45v18.05H338.5z M343.32,167.84v-2.04h15.27v2.04
	h-6.41v16.01h-2.45v-16.01H343.32z M376.14,167.46c-1.77,0-3.18,0.66-4.22,1.98c-1.04,1.32-1.57,3.12-1.57,5.41
	c0,2.26,0.52,4.07,1.57,5.41c1.04,1.32,2.45,1.98,4.22,1.98c1.77,0,3.18-0.66,4.22-1.98c1.02-1.34,1.54-3.14,1.54-5.41
	c0-2.28-0.51-4.09-1.54-5.41C379.32,168.11,377.91,167.46,376.14,167.46z M376.14,165.48c2.54,0,4.57,0.85,6.09,2.54
	s2.27,3.97,2.27,6.82c0,2.86-0.76,5.13-2.27,6.82s-3.55,2.54-6.09,2.54c-2.54,0-4.57-0.85-6.09-2.54c-1.52-1.69-2.27-3.97-2.27-6.82
	c0-2.86,0.76-5.13,2.27-6.82C371.57,166.32,373.6,165.48,376.14,165.48z M388.31,183.85V165.8h3.28l8.01,15.1v-15.1h2.39v18.05
	h-3.31l-8.01-15.1v15.1H388.31z"/>
<path id="Path_5" class="st2" d="M186.92,165.86h-32.14c-15.16,0-20.71,5.52-20.71,20.68v32.14c0,15.16,5.55,20.71,20.71,20.71
	h32.14c15.13,0,20.68-5.55,20.68-20.71v-32.14C207.6,171.38,202.08,165.86,186.92,165.86z"/>
<path id="Path_6" class="st3" d="M165.45,210.23l-0.89,1.98h-1.98l4.22-9.6h1.71l4.22,9.6h-2.04l-0.86-1.98H165.45z M166.15,208.49
	h2.95l-1.48-3.43L166.15,208.49z M197.47,202.61h1.95v9.6h-1.95V202.61z M189.82,210.47h5.35v1.74h-7.27v-9.6h7.06v1.77h-5.14v1.95
	h3.55v1.77h-3.55V210.47z M184.29,202.61h2.04l-3.34,9.63h-1.65l-2.19-6.32l-2.19,6.32h-1.6l-3.37-9.63h2.1l2.13,6.62l2.16-6.62h1.6
	l2.19,6.62L184.29,202.61z M159.63,202.61h1.95v5.44c0,2.75-1.51,4.34-4.17,4.34c-2.6,0-4.11-1.57-4.11-4.28v-5.49h1.95v5.44
	c0,1.62,0.77,2.48,2.19,2.48s2.19-0.86,2.19-2.42V202.61z M148.64,202.61h1.95v9.63h-1.95v-3.93h-4.4v3.93h-1.95v-9.63h1.95v3.87
	h4.4V202.61z M170.85,190.38c-6.77,0-12.23-5.49-12.23-12.23h1.71c0,5.79,4.73,10.49,10.52,10.49c5.79,0,10.52-4.7,10.52-10.49h1.71
	C183.08,184.88,177.59,190.38,170.85,190.38z"/>
</svg>
