<?xml version="1.0" standalone="no"?>
<!DOCTYPE svg PUBLIC "-//W3C//DTD SVG 20010904//EN"
 "http://www.w3.org/TR/2001/REC-SVG-20010904/DTD/svg10.dtd">
<svg version="1.0" xmlns="http://www.w3.org/2000/svg"
 width="512.000000pt" height="512.000000pt" viewBox="0 0 512.000000 512.000000"
 preserveAspectRatio="xMidYMid meet">

<g transform="translate(0.000000,512.000000) scale(0.100000,-0.100000)"
fill="#000000" stroke="none">
<path d="M600 5104 c-157 -42 -273 -169 -331 -364 l-23 -75 -4 -2055 c-2
-1522 0 -2076 8 -2135 29 -200 128 -360 265 -429 148 -73 309 -59 516 45 102
51 1823 1045 2916 1685 598 350 648 385 735 518 109 168 104 365 -13 540 -86
129 -142 170 -603 440 -232 136 -428 251 -436 256 -66 40 -2481 1443 -2535
1473 -193 107 -351 139 -495 101z m191 -205 c30 -6 84 -25 121 -42 l67 -32
918 -1129 c505 -620 918 -1132 918 -1136 0 -4 -412 -514 -915 -1133 -906
-1115 -916 -1126 -977 -1157 -34 -17 -92 -37 -129 -45 -165 -34 -267 38 -314
220 -20 77 -20 110 -20 2119 0 2197 -2 2105 50 2206 30 59 84 108 138 124 59
18 75 19 143 5z m1797 -1009 c566 -331 880 -520 877 -528 -7 -19 -497 -622
-505 -622 -6 0 -1392 1698 -1438 1762 -7 9 31 -8 86 -40 54 -31 495 -289 980
-572z m1432 -840 c380 -221 379 -220 440 -286 99 -109 121 -216 67 -327 -50
-101 -118 -152 -495 -371 -189 -109 -349 -199 -356 -200 -19 -1 -578 683 -572
700 3 7 130 166 283 353 260 319 279 340 298 328 11 -7 162 -96 335 -197z
m-799 -981 c140 -171 255 -313 256 -317 2 -7 -1958 -1145 -1962 -1140 -4 5
1437 1768 1445 1768 4 0 122 -140 261 -311z"/>
</g>
</svg>
